# xmcd
#
# Track frame offsets:
#	150
#	16936
#	32735
#	47718
#	66564
#	81846
#	105326
#	119760
#	139377
#	157552
#	171968
#	185598
#	206269
#
# Disc length: 2843 seconds
#
# Revision: 0
# Processed by: cddbd v1.5.1PL2 Copyright (c) Steve Scherf et al.
# Submitted via: audiograbber 1.83.01
#
DISCID=ae0b190d
DTITLE=Максим - Трудный возраст
DYEAR=2006
DGENRE=Pop
TTITLE0=Трудный возраст
TTITLE1=Сантиметры дыханья
TTITLE2=Нежность
TTITLE3=Лолита
TTITLE4=Сон
TTITLE5=Пам-парам
TTITLE6=Ветром стать
TTITLE7=Отпускаю
TTITLE8=Знаешь ли ты
TTITLE9=Сантиметры дыханья (remix)
TTITLE10=Трудный возраст (slow version)
TTITLE11=Нежность (remix acid-jazz)
TTITLE12=Небо цвета молока
EXTD=
EXTT0=
EXTT1=
EXTT2=
EXTT3=
EXTT4=
EXTT5=
EXTT6=
EXTT7=
EXTT8=
EXTT9=
EXTT10=
EXTT11=
EXTT12=
PLAYORDER=
